solid 1
facet normal 0.0654031292301432 -0.997858923238604 -1.46840162102404e-017
outer loop
vertex 7.04991620636974e-016 3.0 8.0
vertex -0.776457135307561 2.89777747886721 1.40998324127395e-015
vertex 7.04991620636974e-016 3.0 1.40998324127395e-015
endloop
endfacet
facet normal 0.258819045102521 -0.965925826289068 -3.05973633405974e-017
outer loop
vertex -0.776457135307561 2.89777747886721 1.40998324127395e-015
vertex 7.04991620636974e-016 3.0 8.0
vertex -0.776457135307561 2.89777747886721 8.0
endloop
endfacet
facet normal 0.258819045102521 -0.965925826289068 -3.05973633405974e-017
outer loop
vertex -0.776457135307561 2.89777747886721 8.0
vertex -1.5 2.59807621135332 1.40998324127395e-015
vertex -0.776457135307561 2.89777747886721 1.40998324127395e-015
endloop
endfacet
facet normal 0.5 -0.866025403784439 -3.15980431535143e-017
outer loop
vertex -1.5 2.59807621135332 1.40998324127395e-015
vertex -0.776457135307561 2.89777747886721 8.0
vertex -1.5 2.59807621135332 8.0
endloop
endfacet
facet normal 0.5 -0.866025403784439 -3.15980431535143e-017
outer loop
vertex -1.5 2.59807621135332 8.0
vertex -2.12132034355964 2.12132034355964 1.40998324127395e-015
vertex -1.5 2.59807621135332 1.40998324127395e-015
endloop
endfacet
facet normal 0.707106781186547 -0.707106781186548 -3.04453685437544e-017
outer loop
vertex -2.12132034355964 2.12132034355964 1.40998324127395e-015
vertex -1.5 2.59807621135332 8.0
vertex -2.12132034355964 2.12132034355964 8.0
endloop
endfacet
facet normal 0.707106781186547 -0.707106781186548 -3.04453685437544e-017
outer loop
vertex -2.12132034355964 2.12132034355964 1.40998324127395e-015
vertex -2.59807621135332 1.5 8.0
vertex -2.59807621135332 1.5 1.40998324127395e-015
endloop
endfacet
facet normal 0.866025403784438 -0.500000000000001 -2.72178923810882e-017
outer loop
vertex -2.59807621135332 1.5 8.0
vertex -2.12132034355964 2.12132034355964 1.40998324127395e-015
vertex -2.12132034355964 2.12132034355964 8.0
endloop
endfacet
facet normal 0.866025403784438 -0.500000000000001 -2.72178923810882e-017
outer loop
vertex -2.59807621135332 1.5 1.40998324127395e-015
vertex -2.8977774788672 0.776457135307564 8.0
vertex -2.8977774788672 0.776457135307564 1.40998324127395e-015
endloop
endfacet
facet normal 0.965925826289068 -0.258819045102521 -2.21355618323446e-017
outer loop
vertex -2.8977774788672 0.776457135307564 8.0
vertex -2.59807621135332 1.5 1.40998324127395e-015
vertex -2.59807621135332 1.5 8.0
endloop
endfacet
facet normal 0.965925826289068 -0.258819045102521 -2.21355618323446e-017
outer loop
vertex -2.8977774788672 0.776457135307564 1.40998324127395e-015
vertex -3.0 0.0 8.0
vertex -3.0 0.0 1.40998324127395e-015
endloop
endfacet
facet normal 1.0 -2.22777747391173e-016 -1.55447293254723e-017
outer loop
vertex -3.0 0.0 8.0
vertex -2.8977774788672 0.776457135307564 1.40998324127395e-015
vertex -2.8977774788672 0.776457135307564 8.0
endloop
endfacet
facet normal 1.0 -2.22777747391173e-016 -1.55447293254723e-017
outer loop
vertex -3.0 0.0 1.40998324127395e-015
vertex -2.89777747886721 -0.776457135307561 8.0
vertex -2.89777747886721 -0.776457135307561 1.40998324127395e-015
endloop
endfacet
facet normal 0.965925826289068 0.25881904510252 -7.89454920394891e-018
outer loop
vertex -2.89777747886721 -0.776457135307561 8.0
vertex -3.0 0.0 1.40998324127395e-015
vertex -3.0 0.0 8.0
endloop
endfacet
facet normal 0.965925826289068 0.25881904510252 -7.89454920394891e-018
outer loop
vertex -2.89777747886721 -0.776457135307561 1.40998324127395e-015
vertex -2.59807621135332 -1.5 8.0
vertex -2.59807621135332 -1.5 1.40998324127395e-015
endloop
endfacet
facet normal 0.866025403784439 0.5 2.93631399464221e-019
outer loop
vertex -2.59807621135332 -1.5 8.0
vertex -2.89777747886721 -0.776457135307561 1.40998324127395e-015
vertex -2.89777747886721 -0.776457135307561 8.0
endloop
endfacet
facet normal 0.866025403784439 0.5 2.93631399464221e-019
outer loop
vertex -2.59807621135332 -1.5 1.40998324127395e-015
vertex -2.12132034355964 -2.12132034355964 8.0
vertex -2.12132034355964 -2.12132034355964 1.40998324127395e-015
endloop
endfacet
facet normal 0.707106781186547 0.707106781186548 8.46180150825271e-018
outer loop
vertex -2.12132034355964 -2.12132034355964 8.0
vertex -2.59807621135332 -1.5 1.40998324127395e-015
vertex -2.59807621135332 -1.5 8.0
endloop
endfacet
facet normal 0.707106781186547 0.707106781186548 8.46180150825271e-018
outer loop
vertex -2.12132034355964 -2.12132034355964 8.0
vertex -1.5 -2.59807621135331 1.40998324127395e-015
vertex -2.12132034355964 -2.12132034355964 1.40998324127395e-015
endloop
endfacet
facet normal 0.5 0.866025403784439 1.60533138280419e-017
outer loop
vertex -1.5 -2.59807621135331 1.40998324127395e-015
vertex -2.12132034355964 -2.12132034355964 8.0
vertex -1.5 -2.59807621135331 8.0
endloop
endfacet
facet normal 0.5 0.866025403784439 1.60533138280419e-017
outer loop
vertex -1.5 -2.59807621135331 8.0
vertex -0.776457135307565 -2.8977774788672 1.40998324127395e-015
vertex -1.5 -2.59807621135331 1.40998324127395e-015
endloop
endfacet
facet normal 0.258819045102522 0.965925826289068 2.25508193398055e-017
outer loop
vertex -0.776457135307565 -2.8977774788672 1.40998324127395e-015
vertex -1.5 -2.59807621135331 8.0
vertex -0.776457135307565 -2.8977774788672 8.0
endloop
endfacet
facet normal 0.258819045102522 0.965925826289068 2.25508193398055e-017
outer loop
vertex -0.776457135307565 -2.8977774788672 8.0
vertex 0.0 -3.0 1.40998324127395e-015
vertex -0.776457135307565 -2.8977774788672 1.40998324127395e-015
endloop
endfacet
facet normal 0.0654031292301434 0.997858923238604 2.64359455553938e-017
outer loop
vertex 0.0 -3.0 1.40998324127395e-015
vertex -0.776457135307565 -2.8977774788672 8.0
vertex 0.0 -3.0 8.0
endloop
endfacet
facet normal 0.0654031292301434 0.997858923238604 2.64359455553938e-017
outer loop
vertex 0.0 -3.0 8.0
vertex 10.0 -3.0 1.40998324127395e-015
vertex 0.0 -3.0 1.40998324127395e-015
endloop
endfacet
facet normal 0.0 1.0 2.75115237805524e-017
outer loop
vertex 10.0 -3.0 1.40998324127395e-015
vertex 0.0 -3.0 8.0
vertex 10.0 -3.0 8.0
endloop
endfacet
facet normal -0.965925826289068 0.258819045102522 2.21355618323447e-017
outer loop
vertex 10.0571303621921 -2.56605181641783 8.0
vertex 10.0 -3.0 1.40998324127395e-015
vertex 10.0 -3.0 8.0
endloop
endfacet
facet normal -0.991444861373811 0.130526192220051 1.90027164524332e-017
outer loop
vertex 10.0 -3.0 1.40998324127395e-015
vertex 10.0571303621921 -2.56605181641783 8.0
vertex 10.0571303621921 -2.56605181641783 1.40998324127395e-015
endloop
endfacet
facet normal -0.866025403784438 0.500000000000001 2.72178923810882e-017
outer loop
vertex 10.2246281089974 -2.16167648441351 8.0
vertex 10.0571303621921 -2.56605181641783 1.40998324127395e-015
vertex 10.0571303621921 -2.56605181641783 8.0
endloop
endfacet
facet normal -0.965925826289068 0.258819045102522 2.21355618323447e-017
outer loop
vertex 10.0571303621921 -2.56605181641783 1.40998324127395e-015
vertex 10.2246281089974 -2.16167648441351 8.0
vertex 10.2246281089974 -2.16167648441351 1.40998324127395e-015
endloop
endfacet
facet normal -0.707106781186547 0.707106781186548 3.04453685437544e-017
outer loop
vertex 10.4910785457743 -1.81443151460129 8.0
vertex 10.2246281089974 -2.16167648441351 1.40998324127395e-015
vertex 10.2246281089974 -2.16167648441351 8.0
endloop
endfacet
facet normal -0.866025403784438 0.500000000000001 2.72178923810882e-017
outer loop
vertex 10.2246281089974 -2.16167648441351 1.40998324127395e-015
vertex 10.4910785457743 -1.81443151460129 8.0
vertex 10.4910785457743 -1.81443151460129 1.40998324127395e-015
endloop
endfacet
facet normal -0.707106781186547 0.707106781186548 3.04453685437544e-017
outer loop
vertex 10.4910785457743 -1.81443151460129 8.0
vertex 10.8383235155865 -1.54798107782444 1.40998324127395e-015
vertex 10.4910785457743 -1.81443151460129 1.40998324127395e-015
endloop
endfacet
facet normal -0.5 0.866025403784439 3.15980431535142e-017
outer loop
vertex 10.8383235155865 -1.54798107782444 1.40998324127395e-015
vertex 10.4910785457743 -1.81443151460129 8.0
vertex 10.8383235155865 -1.54798107782444 8.0
endloop
endfacet
facet normal -0.5 0.866025403784439 3.15980431535142e-017
outer loop
vertex 10.8383235155865 -1.54798107782444 8.0
vertex 11.2426988475908 -1.38048333101913 1.40998324127395e-015
vertex 10.8383235155865 -1.54798107782444 1.40998324127395e-015
endloop
endfacet
facet normal -0.258819045102521 0.965925826289068 3.05973633405973e-017
outer loop
vertex 11.2426988475908 -1.38048333101913 1.40998324127395e-015
vertex 10.8383235155865 -1.54798107782444 8.0
vertex 11.2426988475908 -1.38048333101913 8.0
endloop
endfacet
facet normal -0.258819045102521 0.965925826289068 3.05973633405973e-017
outer loop
vertex 11.2426988475908 -1.38048333101913 8.0
vertex 11.676647031173 -1.32335296882702 1.40998324127395e-015
vertex 11.2426988475908 -1.38048333101913 1.40998324127395e-015
endloop
endfacet
facet normal 0.0 1.0 2.75115237805524e-017
outer loop
vertex 11.676647031173 -1.32335296882702 1.40998324127395e-015
vertex 11.2426988475908 -1.38048333101913 8.0
vertex 11.676647031173 -1.32335296882702 8.0
endloop
endfacet
facet normal 0.0 1.0 2.75115237805524e-017
outer loop
vertex 11.676647031173 -1.32335296882702 8.0
vertex 12.1105952147551 -1.38048333101913 1.40998324127395e-015
vertex 11.676647031173 -1.32335296882702 1.40998324127395e-015
endloop
endfacet
facet normal 0.258819045102521 0.965925826289068 2.25508193398055e-017
outer loop
vertex 12.1105952147551 -1.38048333101913 1.40998324127395e-015
vertex 11.676647031173 -1.32335296882702 8.0
vertex 12.1105952147551 -1.38048333101913 8.0
endloop
endfacet
facet normal 0.258819045102521 0.965925826289068 2.25508193398055e-017
outer loop
vertex 12.1105952147551 -1.38048333101913 8.0
vertex 12.5149705467595 -1.54798107782444 1.40998324127395e-015
vertex 12.1105952147551 -1.38048333101913 1.40998324127395e-015
endloop
endfacet
facet normal 0.5 0.866025403784439 1.60533138280419e-017
outer loop
vertex 12.5149705467595 -1.54798107782444 1.40998324127395e-015
vertex 12.1105952147551 -1.38048333101913 8.0
vertex 12.5149705467595 -1.54798107782444 8.0
endloop
endfacet
facet normal 0.5 0.866025403784439 1.60533138280419e-017
outer loop
vertex 12.5149705467595 -1.54798107782444 8.0
vertex 12.8622155165717 -1.81443151460129 1.40998324127395e-015
vertex 12.5149705467595 -1.54798107782444 1.40998324127395e-015
endloop
endfacet
facet normal 0.707106781186548 0.707106781186547 8.4618015082527e-018
outer loop
vertex 12.8622155165717 -1.81443151460129 1.40998324127395e-015
vertex 12.5149705467595 -1.54798107782444 8.0
vertex 12.8622155165717 -1.81443151460129 8.0
endloop
endfacet
facet normal 0.0 -1.0 0.0
outer loop
vertex 10.6633793524345 3.0 8.0
vertex 8.4393896578108 3.0 1.40998324127395e-015
vertex 10.6633793524345 3.0 1.40998324127395e-015
endloop
endfacet
facet normal 0.0 -1.0 0.0
outer loop
vertex 8.4393896578108 3.0 1.40998324127395e-015
vertex 10.6633793524345 3.0 8.0
vertex 8.4393896578108 3.0 8.0
endloop
endfacet
facet normal -0.99487937574852 0.101069420252788 0.0
outer loop
vertex 8.44725236513605 3.0773967569605 8.0
vertex 8.4393896578108 3.0 1.40998324127395e-015
vertex 8.4393896578108 3.0 8.0
endloop
endfacet
facet normal -0.99487937574852 0.101069420252788 0.0
outer loop
vertex 8.4393896578108 3.0 1.40998324127395e-015
vertex 8.44725236513605 3.0773967569605 8.0
vertex 8.44725236513605 3.0773967569605 1.40998324127395e-015
endloop
endfacet
facet normal 0.0 -1.0 0.0
outer loop
vertex 3.23725737336218 3.0 8.0
vertex 7.04991620636974e-016 3.0 1.40998324127395e-015
vertex 3.23725737336218 3.0 1.40998324127395e-015
endloop
endfacet
facet normal 0.0654031292301432 -0.997858923238604 -1.46840162102404e-017
outer loop
vertex 7.04991620636974e-016 3.0 1.40998324127395e-015
vertex 3.23725737336218 3.0 8.0
vertex 7.04991620636974e-016 3.0 8.0
endloop
endfacet
facet normal -4.29179288746031e-017 -2.37540813551917e-018 -1.0
outer loop
vertex 3.71895716139377 7.00936402136378 1.65434695550837e-016
vertex 3.23725737336218 3.0773967569605 1.40998324127395e-015
vertex 2.76013254326918 6.27363201513817 3.93813608892454e-016
endloop
endfacet
facet normal -4.29179288746031e-017 -2.37540813551917e-018 -1.0
outer loop
vertex 3.23725737336218 3.0773967569605 1.40998324127395e-015
vertex 3.71895716139377 7.00936402136378 1.65434695550837e-016
vertex 3.56610059204121 3.46037610269691 1.40998324127395e-015
endloop
endfacet
facet normal -4.29179288746031e-017 -2.37540813551917e-018 -1.0
outer loop
vertex 3.56610059204121 3.46037610269691 1.40998324127395e-015
vertex 3.71895716139377 7.00936402136378 1.65434695550837e-016
vertex 3.95064986548016 3.78738206293225 1.40998324127395e-015
endloop
endfacet
facet normal -4.29179288746031e-017 -2.37540813551917e-018 -1.0
outer loop
vertex 3.95064986548016 3.78738206293225 1.40998324127395e-015
vertex 3.71895716139377 7.00936402136378 1.65434695550837e-016
vertex 4.83553207822474 7.47186449532078 2.18697088865331e-017
endloop
endfacet
facet normal -4.29179288746031e-017 -2.37540813551917e-018 -1.0
outer loop
vertex 3.95064986548016 3.78738206293225 1.40998324127395e-015
vertex 4.83553207822474 7.47186449532078 2.18697088865331e-017
vertex 4.38149382684042 4.05041157209665 1.40998324127395e-015
endloop
endfacet
facet normal -4.29179288746031e-017 -2.37540813551917e-018 -1.0
outer loop
vertex 4.38149382684042 4.05041157209665 1.40998324127395e-015
vertex 4.83553207822474 7.47186449532078 2.18697088865331e-017
vertex 4.84808810417636 4.24302730896468 1.40998324127395e-015
endloop
endfacet
facet normal -4.29179288746031e-017 -2.37540813551917e-018 -1.0
outer loop
vertex 4.84808810417636 4.24302730896468 1.40998324127395e-015
vertex 4.83553207822474 7.47186449532078 2.18697088865331e-017
vertex 6.03376455840735 7.62961479402716 -2.70976345116428e-017
endloop
endfacet
facet normal -4.29179288746031e-017 -2.37540813551917e-018 -1.0
outer loop
vertex 4.84808810417636 4.24302730896468 1.40998324127395e-015
vertex 6.03376455840735 7.62961479402716 -2.70976345116428e-017
vertex 5.33901338086951 4.36051524211368 1.40998324127395e-015
endloop
endfacet
facet normal -4.29179288746031e-017 -2.37540813551917e-018 -1.0
outer loop
vertex 5.33901338086951 4.36051524211368 1.40998324127395e-015
vertex 6.03376455840735 7.62961479402716 -2.70976345116428e-017
vertex 5.84225486924912 4.4 1.40998324127395e-015
endloop
endfacet
facet normal -4.29179288746031e-017 -2.37540813551917e-018 -1.0
outer loop
vertex 5.84225486924912 4.4 1.40998324127395e-015
vertex 6.03376455840735 7.62961479402716 -2.70976345116428e-017
vertex 6.34549635762873 4.36051524211368 1.40998324127395e-015
endloop
endfacet
facet normal -4.29179288746031e-017 -2.37540813551917e-018 -1.0
outer loop
vertex 6.34549635762873 4.36051524211368 1.40998324127395e-015
vertex 6.03376455840735 7.62961479402716 -2.70976345116428e-017
vertex 7.23199703858996 7.47186449532078 2.18697088865334e-017
endloop
endfacet
facet normal -4.29179288746031e-017 -2.37540813551917e-018 -1.0
outer loop
vertex 6.34549635762873 4.36051524211368 1.40998324127395e-015
vertex 7.23199703858996 7.47186449532078 2.18697088865334e-017
vertex 6.83642163432187 4.24302730896468 1.40998324127395e-015
endloop
endfacet
facet normal -4.29179288746031e-017 -2.37540813551917e-018 -1.0
outer loop
vertex 6.83642163432187 4.24302730896468 1.40998324127395e-015
vertex 7.23199703858996 7.47186449532078 2.18697088865334e-017
vertex 7.30301591165782 4.05041157209665 1.40998324127395e-015
endloop
endfacet
facet normal -4.29179288746031e-017 -2.37540813551917e-018 -1.0
outer loop
vertex 7.30301591165782 4.05041157209665 1.40998324127395e-015
vertex 7.23199703858996 7.47186449532078 2.18697088865334e-017
vertex 8.34857195542093 7.00936402136378 1.65434695550837e-016
endloop
endfacet
facet normal -4.29179288746031e-017 -2.37540813551917e-018 -1.0
outer loop
vertex 7.30301591165782 4.05041157209665 1.40998324127395e-015
vertex 8.34857195542093 7.00936402136378 1.65434695550837e-016
vertex 7.73385987301808 3.78738206293225 1.40998324127395e-015
endloop
endfacet
facet normal -4.29179288746031e-017 -2.37540813551917e-018 -1.0
outer loop
vertex 7.73385987301808 3.78738206293225 1.40998324127395e-015
vertex 8.34857195542093 7.00936402136378 1.65434695550837e-016
vertex 8.11840914645703 3.4603761026969 1.40998324127395e-015
endloop
endfacet
facet normal -4.29179288746031e-017 -2.37540813551917e-018 -1.0
outer loop
vertex 8.11840914645703 3.4603761026969 1.40998324127395e-015
vertex 8.34857195542093 7.00936402136378 1.65434695550837e-016
vertex 8.44725236513605 3.0773967569605 1.40998324127395e-015
endloop
endfacet
facet normal -4.29179288746031e-017 -2.37540813551917e-018 -1.0
outer loop
vertex 8.44725236513605 3.0773967569605 1.40998324127395e-015
vertex 8.34857195542093 7.00936402136378 1.65434695550837e-016
vertex 9.30739657354552 6.27363201513817 3.93813608892455e-016
endloop
endfacet
facet normal -4.29179288746031e-017 -2.37540813551917e-018 -1.0
outer loop
vertex 8.44725236513605 3.0773967569605 1.40998324127395e-015
vertex 10.6633793524345 3.0 1.40998324127395e-015
vertex 8.4393896578108 3.0 1.40998324127395e-015
endloop
endfacet
facet normal -4.29179288746031e-017 -2.37540813551917e-018 -1.0
outer loop
vertex 10.6633793524345 3.0 1.40998324127395e-015
vertex 8.44725236513605 3.0773967569605 1.40998324127395e-015
vertex 9.30739657354552 6.27363201513817 3.93813608892455e-016
endloop
endfacet
facet normal -4.29179288746031e-017 -2.37540813551917e-018 -1.0
outer loop
vertex 10.6633793524345 3.0 1.40998324127395e-015
vertex 9.30739657354552 6.27363201513817 3.93813608892455e-016
vertex 10.0431285797711 5.31480739701358 6.91442803381153e-016
endloop
endfacet
facet normal -4.29179288746031e-017 -2.37540813551917e-018 -1.0
outer loop
vertex 10.6633793524345 3.0 1.40998324127395e-015
vertex 10.0431285797711 5.31480739701358 6.91442803381153e-016
vertex 10.5056290537281 4.19823248018261 1.03803934126803e-015
endloop
endfacet
facet normal -4.29179288746031e-017 -2.37540813551917e-018 -1.0
outer loop
vertex -2.5 4.33012701892219 1.40998324127395e-015
vertex -3.0 0.0 1.40998324127395e-015
vertex -3.53553390593274 3.53553390593274 1.40998324127395e-015
endloop
endfacet
facet normal -4.29179288746031e-017 -2.37540813551917e-018 -1.0
outer loop
vertex -3.0 0.0 1.40998324127395e-015
vertex -2.5 4.33012701892219 1.40998324127395e-015
vertex -2.8977774788672 0.776457135307564 1.40998324127395e-015
endloop
endfacet
facet normal -4.29179288746031e-017 -2.37540813551917e-018 -1.0
outer loop
vertex -2.8977774788672 0.776457135307564 1.40998324127395e-015
vertex -2.5 4.33012701892219 1.40998324127395e-015
vertex -2.59807621135332 1.5 1.40998324127395e-015
endloop
endfacet
facet normal -4.29179288746031e-017 -2.37540813551917e-018 -1.0
outer loop
vertex -2.59807621135332 1.5 1.40998324127395e-015
vertex -2.5 4.33012701892219 1.40998324127395e-015
vertex -2.12132034355964 2.12132034355964 1.40998324127395e-015
endloop
endfacet
facet normal -4.29179288746031e-017 -2.37540813551917e-018 -1.0
outer loop
vertex -2.12132034355964 2.12132034355964 1.40998324127395e-015
vertex -2.5 4.33012701892219 1.40998324127395e-015
vertex -1.2940952255126 4.82962913144534 1.40998324127395e-015
endloop
endfacet
facet normal -4.29179288746031e-017 -2.37540813551917e-018 -1.0
outer loop
vertex -2.12132034355964 2.12132034355964 1.40998324127395e-015
vertex -1.2940952255126 4.82962913144534 1.40998324127395e-015
vertex -1.5 2.59807621135332 1.40998324127395e-015
endloop
endfacet
facet normal -4.29179288746031e-017 -2.37540813551917e-018 -1.0
outer loop
vertex -1.5 2.59807621135332 1.40998324127395e-015
vertex -1.2940952255126 4.82962913144534 1.40998324127395e-015
vertex -0.776457135307561 2.89777747886721 1.40998324127395e-015
endloop
endfacet
facet normal -4.29179288746031e-017 -2.37540813551917e-018 -1.0
outer loop
vertex -0.776457135307561 2.89777747886721 1.40998324127395e-015
vertex -1.2940952255126 4.82962913144534 1.40998324127395e-015
vertex 0.0 5.0 1.40998324127395e-015
endloop
endfacet
facet normal -4.29179288746031e-017 -2.37540813551917e-018 -1.0
outer loop
vertex -0.776457135307561 2.89777747886721 1.40998324127395e-015
vertex 0.0 5.0 1.40998324127395e-015
vertex 7.04991620636974e-016 3.0 1.40998324127395e-015
endloop
endfacet
facet normal -4.29179288746031e-017 -2.37540813551917e-018 -1.0
outer loop
vertex 7.04991620636974e-016 3.0 1.40998324127395e-015
vertex 0.0 5.0 1.40998324127395e-015
vertex 0.404149764380189 5.0 1.40998324127395e-015
endloop
endfacet
facet normal -4.29179288746031e-017 -2.37540813551917e-018 -1.0
outer loop
vertex 7.04991620636974e-016 3.0 1.40998324127395e-015
vertex 0.404149764380189 5.0 1.40998324127395e-015
vertex 3.23725737336218 3.0 1.40998324127395e-015
endloop
endfacet
facet normal -4.29179288746031e-017 -2.37540813551917e-018 -1.0
outer loop
vertex 3.23725737336218 3.0 1.40998324127395e-015
vertex 0.404149764380189 5.0 1.40998324127395e-015
vertex 1.40414976438019 5.0 1.40998324127395e-015
endloop
endfacet
facet normal -4.29179288746031e-017 -2.37540813551917e-018 -1.0
outer loop
vertex 3.23725737336218 3.0 1.40998324127395e-015
vertex 1.40414976438019 5.0 1.40998324127395e-015
vertex 1.89400304366517 5.0 1.09957277739699e-015
endloop
endfacet
facet normal -4.29179288746031e-017 -2.37540813551917e-018 -1.0
outer loop
vertex 3.23725737336218 3.0 1.40998324127395e-015
vertex 1.89400304366517 5.0 1.09957277739699e-015
vertex 2.02440053704357 5.31480739701358 6.91442803381153e-016
endloop
endfacet
facet normal -4.29179288746031e-017 -2.37540813551917e-018 -1.0
outer loop
vertex 3.23725737336218 3.0 1.40998324127395e-015
vertex 2.02440053704357 5.31480739701358 6.91442803381153e-016
vertex 2.76013254326918 6.27363201513817 3.93813608892454e-016
endloop
endfacet
facet normal -4.29179288746031e-017 -2.37540813551917e-018 -1.0
outer loop
vertex 3.23725737336218 3.0 1.40998324127395e-015
vertex 2.76013254326918 6.27363201513817 3.93813608892454e-016
vertex 3.23725737336218 3.0773967569605 1.40998324127395e-015
endloop
endfacet
facet normal -4.29179288746031e-017 -2.37540813551917e-018 -1.0
outer loop
vertex -4.82962913144534 1.29409522551261 1.40998324127395e-015
vertex -4.82962913144534 -1.2940952255126 1.40998324127395e-015
vertex -5.0 0.0 1.40998324127395e-015
endloop
endfacet
facet normal -4.29179288746031e-017 -2.37540813551917e-018 -1.0
outer loop
vertex -4.82962913144534 -1.2940952255126 1.40998324127395e-015
vertex -4.82962913144534 1.29409522551261 1.40998324127395e-015
vertex -4.33012701892219 -2.5 1.40998324127395e-015
endloop
endfacet
facet normal -4.29179288746031e-017 -2.37540813551917e-018 -1.0
outer loop
vertex -4.33012701892219 -2.5 1.40998324127395e-015
vertex -4.82962913144534 1.29409522551261 1.40998324127395e-015
vertex -4.33012701892219 2.5 1.40998324127395e-015
endloop
endfacet
facet normal -4.29179288746031e-017 -2.37540813551917e-018 -1.0
outer loop
vertex -4.33012701892219 -2.5 1.40998324127395e-015
vertex -4.33012701892219 2.5 1.40998324127395e-015
vertex -3.53553390593274 -3.53553390593274 1.40998324127395e-015
endloop
endfacet
facet normal -4.29179288746031e-017 -2.37540813551917e-018 -1.0
outer loop
vertex -3.53553390593274 -3.53553390593274 1.40998324127395e-015
vertex -4.33012701892219 2.5 1.40998324127395e-015
vertex -3.53553390593274 3.53553390593274 1.40998324127395e-015
endloop
endfacet
facet normal -4.29179288746031e-017 -2.37540813551917e-018 -1.0
outer loop
vertex -3.53553390593274 -3.53553390593274 1.40998324127395e-015
vertex -3.53553390593274 3.53553390593274 1.40998324127395e-015
vertex -2.5 -4.33012701892219 1.40998324127395e-015
endloop
endfacet
facet normal -4.29179288746031e-017 -2.37540813551917e-018 -1.0
outer loop
vertex -2.5 -4.33012701892219 1.40998324127395e-015
vertex -3.53553390593274 3.53553390593274 1.40998324127395e-015
vertex -3.0 0.0 1.40998324127395e-015
endloop
endfacet
facet normal -4.29179288746031e-017 -2.37540813551917e-018 -1.0
outer loop
vertex -2.5 -4.33012701892219 1.40998324127395e-015
vertex -3.0 0.0 1.40998324127395e-015
vertex -2.89777747886721 -0.776457135307561 1.40998324127395e-015
endloop
endfacet
facet normal -4.29179288746031e-017 -2.37540813551917e-018 -1.0
outer loop
vertex -2.5 -4.33012701892219 1.40998324127395e-015
vertex -2.89777747886721 -0.776457135307561 1.40998324127395e-015
vertex -2.59807621135332 -1.5 1.40998324127395e-015
endloop
endfacet
facet normal -4.29179288746031e-017 -2.37540813551917e-018 -1.0
outer loop
vertex -2.5 -4.33012701892219 1.40998324127395e-015
vertex -2.59807621135332 -1.5 1.40998324127395e-015
vertex -2.12132034355964 -2.12132034355964 1.40998324127395e-015
endloop
endfacet
facet normal -4.29179288746031e-017 -2.37540813551917e-018 -1.0
outer loop
vertex -2.5 -4.33012701892219 1.40998324127395e-015
vertex -2.12132034355964 -2.12132034355964 1.40998324127395e-015
vertex -1.29409522551261 -4.82962913144534 1.40998324127395e-015
endloop
endfacet
facet normal -4.29179288746031e-017 -2.37540813551917e-018 -1.0
outer loop
vertex -1.29409522551261 -4.82962913144534 1.40998324127395e-015
vertex -2.12132034355964 -2.12132034355964 1.40998324127395e-015
vertex -1.5 -2.59807621135331 1.40998324127395e-015
endloop
endfacet
facet normal -4.29179288746031e-017 -2.37540813551917e-018 -1.0
outer loop
vertex -1.29409522551261 -4.82962913144534 1.40998324127395e-015
vertex -1.5 -2.59807621135331 1.40998324127395e-015
vertex -0.776457135307565 -2.8977774788672 1.40998324127395e-015
endloop
endfacet
facet normal -4.29179288746031e-017 -2.37540813551917e-018 -1.0
outer loop
vertex -1.29409522551261 -4.82962913144534 1.40998324127395e-015
vertex -0.776457135307565 -2.8977774788672 1.40998324127395e-015
vertex -7.04991620636974e-016 -5.0 1.40998324127395e-015
endloop
endfacet
facet normal -4.29179288746031e-017 -2.37540813551917e-018 -1.0
outer loop
vertex -7.04991620636974e-016 -5.0 1.40998324127395e-015
vertex -0.776457135307565 -2.8977774788672 1.40998324127395e-015
vertex 0.0 -3.0 1.40998324127395e-015
endloop
endfacet
facet normal -4.29179288746031e-017 -2.37540813551917e-018 -1.0
outer loop
vertex -7.04991620636974e-016 -5.0 1.40998324127395e-015
vertex 0.0 -3.0 1.40998324127395e-015
vertex 12.6800855538246 -5.0 -1.40998324127395e-015
endloop
endfacet
facet normal -4.29179288746031e-017 -2.37540813551917e-018 -1.0
outer loop
vertex 12.6800855538246 -5.0 -1.40998324127395e-015
vertex 0.0 -3.0 1.40998324127395e-015
vertex 10.0 -3.0 1.40998324127395e-015
endloop
endfacet
facet normal -4.29179288746031e-017 -2.37540813551917e-018 -1.0
outer loop
vertex 12.6800855538246 -5.0 -1.40998324127395e-015
vertex 10.0 -3.0 1.40998324127395e-015
vertex 10.0571303621921 -2.56605181641783 1.40998324127395e-015
endloop
endfacet
facet normal -4.29179288746031e-017 -2.37540813551917e-018 -1.0
outer loop
vertex 12.6800855538246 -5.0 -1.40998324127395e-015
vertex 10.0571303621921 -2.56605181641783 1.40998324127395e-015
vertex 10.2246281089974 -2.16167648441351 1.40998324127395e-015
endloop
endfacet
facet normal -4.29179288746031e-017 -2.37540813551917e-018 -1.0
outer loop
vertex 12.6800855538246 -5.0 -1.40998324127395e-015
vertex 10.2246281089974 -2.16167648441351 1.40998324127395e-015
vertex 10.4910785457743 -1.81443151460129 1.40998324127395e-015
endloop
endfacet
facet normal -4.29179288746031e-017 -2.37540813551917e-018 -1.0
outer loop
vertex 12.6800855538246 -5.0 -1.40998324127395e-015
vertex 10.4910785457743 -1.81443151460129 1.40998324127395e-015
vertex 10.8383235155865 -1.54798107782444 1.40998324127395e-015
endloop
endfacet
facet normal -4.29179288746031e-017 -2.37540813551917e-018 -1.0
outer loop
vertex 12.6800855538246 -5.0 -1.40998324127395e-015
vertex 10.8383235155865 -1.54798107782444 1.40998324127395e-015
vertex 11.2426988475908 -1.38048333101913 1.40998324127395e-015
endloop
endfacet
facet normal -4.29179288746031e-017 -2.37540813551917e-018 -1.0
outer loop
vertex 12.6800855538246 -5.0 -1.40998324127395e-015
vertex 11.2426988475908 -1.38048333101913 1.40998324127395e-015
vertex 11.676647031173 -1.32335296882702 1.40998324127395e-015
endloop
endfacet
facet normal -4.29179288746031e-017 -2.37540813551917e-018 -1.0
outer loop
vertex 12.6800855538246 -5.0 -1.40998324127395e-015
vertex 11.676647031173 -1.32335296882702 1.40998324127395e-015
vertex 12.1105952147551 -1.38048333101913 1.40998324127395e-015
endloop
endfacet
facet normal -4.29179288746031e-017 -2.37540813551917e-018 -1.0
outer loop
vertex 12.6800855538246 -5.0 -1.40998324127395e-015
vertex 12.1105952147551 -1.38048333101913 1.40998324127395e-015
vertex 12.5149705467595 -1.54798107782444 1.40998324127395e-015
endloop
endfacet
facet normal -4.29179288746031e-017 -2.37540813551917e-018 -1.0
outer loop
vertex 12.6800855538246 -5.0 -1.40998324127395e-015
vertex 12.5149705467595 -1.54798107782444 1.40998324127395e-015
vertex 12.8622155165717 -1.81443151460129 1.40998324127395e-015
endloop
endfacet
facet normal -4.29179288746031e-017 -2.37540813551917e-018 -1.0
outer loop
vertex 12.6800855538246 -5.0 -1.40998324127395e-015
vertex 12.8622155165717 -1.81443151460129 1.40998324127395e-015
vertex 13.353294062346 -3.0 1.40998324127395e-015
endloop
endfacet
facet normal -4.29179288746031e-017 -2.37540813551917e-018 -1.0
outer loop
vertex 12.6800855538246 -5.0 -1.40998324127395e-015
vertex 13.353294062346 -3.0 1.40998324127395e-015
vertex 16.1261891863605 -7.61638956666529 -1.40998324127395e-015
endloop
endfacet
facet normal -4.29179288746031e-017 -2.37540813551917e-018 -1.0
outer loop
vertex 13.353294062346 -3.0 1.40998324127395e-015
vertex 12.8622155165717 -1.81443151460129 1.40998324127395e-015
vertex 13.1286659533485 -2.16167648441351 1.40998324127395e-015
endloop
endfacet
facet normal -4.29179288746031e-017 -2.37540813551917e-018 -1.0
outer loop
vertex 13.353294062346 -3.0 1.40998324127395e-015
vertex 13.1286659533485 -2.16167648441351 1.40998324127395e-015
vertex 13.2961637001539 -2.56605181641783 1.40998324127395e-015
endloop
endfacet
facet normal -4.29179288746031e-017 -2.37540813551917e-018 -1.0
outer loop
vertex 16.1261891863605 -7.61638956666529 -1.40998324127395e-015
vertex 13.353294062346 -3.0 1.40998324127395e-015
vertex 17.3355793646569 -6.02347544574091 -1.40998324127395e-015
endloop
endfacet
facet normal 0.707106781186548 0.707106781186547 8.4618015082527e-018
outer loop
vertex 12.8622155165717 -1.81443151460129 1.40998324127395e-015
vertex 13.1286659533485 -2.16167648441351 8.0
vertex 13.1286659533485 -2.16167648441351 1.40998324127395e-015
endloop
endfacet
facet normal 0.866025403784438 0.5 2.93631399464253e-019
outer loop
vertex 13.1286659533485 -2.16167648441351 8.0
vertex 12.8622155165717 -1.81443151460129 1.40998324127395e-015
vertex 12.8622155165717 -1.81443151460129 8.0
endloop
endfacet
facet normal 0.866025403784438 0.5 2.93631399464253e-019
outer loop
vertex 13.1286659533485 -2.16167648441351 1.40998324127395e-015
vertex 13.2961637001539 -2.56605181641783 8.0
vertex 13.2961637001539 -2.56605181641783 1.40998324127395e-015
endloop
endfacet
facet normal 0.965925826289069 0.258819045102519 -7.89454920394896e-018
outer loop
vertex 13.2961637001539 -2.56605181641783 8.0
vertex 13.1286659533485 -2.16167648441351 1.40998324127395e-015
vertex 13.1286659533485 -2.16167648441351 8.0
endloop
endfacet
facet normal 0.965925826289069 0.258819045102519 -7.89454920394896e-018
outer loop
vertex 13.2961637001539 -2.56605181641783 1.40998324127395e-015
vertex 13.353294062346 -3.0 8.0
vertex 13.353294062346 -3.0 1.40998324127395e-015
endloop
endfacet
facet normal 0.991444861373811 0.130526192220045 -1.18207675699396e-017
outer loop
vertex 13.353294062346 -3.0 8.0
vertex 13.2961637001539 -2.56605181641783 1.40998324127395e-015
vertex 13.2961637001539 -2.56605181641783 8.0
endloop
endfacet
facet normal 0.604695089148182 0.79645706046219 1.25119258738436e-017
outer loop
vertex 13.353294062346 -3.0 1.40998324127395e-015
vertex 17.3355793646569 -6.02347544574091 8.0
vertex 17.3355793646569 -6.02347544574091 -1.40998324127395e-015
endloop
endfacet
facet normal 0.604695089148182 0.79645706046219 1.25119258738436e-017
outer loop
vertex 17.3355793646569 -6.02347544574091 8.0
vertex 13.353294062346 -3.0 1.40998324127395e-015
vertex 13.353294062346 -3.0 8.0
endloop
endfacet
facet normal 0.79645706046219 -0.604695089148181 -2.90167927493295e-017
outer loop
vertex 17.3355793646569 -6.02347544574091 -1.40998324127395e-015
vertex 16.1261891863605 -7.61638956666529 8.0
vertex 16.1261891863605 -7.61638956666529 -1.40998324127395e-015
endloop
endfacet
facet normal 0.79645706046219 -0.604695089148181 -2.90167927493295e-017
outer loop
vertex 16.1261891863605 -7.61638956666529 8.0
vertex 17.3355793646569 -6.02347544574091 -1.40998324127395e-015
vertex 17.3355793646569 -6.02347544574091 8.0
endloop
endfacet
facet normal -0.604695089148182 -0.79645706046219 -1.25119258738436e-017
outer loop
vertex 16.1261891863605 -7.61638956666529 8.0
vertex 12.6800855538246 -5.0 -1.40998324127395e-015
vertex 16.1261891863605 -7.61638956666529 -1.40998324127395e-015
endloop
endfacet
facet normal -0.604695089148182 -0.79645706046219 -1.25119258738436e-017
outer loop
vertex 12.6800855538246 -5.0 -1.40998324127395e-015
vertex 16.1261891863605 -7.61638956666529 8.0
vertex 12.6800855538246 -5.0 8.0
endloop
endfacet
facet normal 5.55983331219979e-017 -1.0 -2.75115237805524e-017
outer loop
vertex 12.6800855538246 -5.0 8.0
vertex -7.04991620636974e-016 -5.0 1.40998324127395e-015
vertex 12.6800855538246 -5.0 -1.40998324127395e-015
endloop
endfacet
facet normal -0.0654031292301432 -0.997858923238603 -2.64359455553938e-017
outer loop
vertex -7.04991620636974e-016 -5.0 1.40998324127395e-015
vertex 12.6800855538246 -5.0 8.0
vertex -7.04991620636974e-016 -5.0 8.0
endloop
endfacet
facet normal -0.0654031292301432 -0.997858923238604 -2.64359455553938e-017
outer loop
vertex -7.04991620636974e-016 -5.0 8.0
vertex -1.29409522551261 -4.82962913144534 1.40998324127395e-015
vertex -7.04991620636974e-016 -5.0 1.40998324127395e-015
endloop
endfacet
facet normal -0.258819045102521 -0.965925826289068 -2.25508193398055e-017
outer loop
vertex -1.29409522551261 -4.82962913144534 1.40998324127395e-015
vertex -7.04991620636974e-016 -5.0 8.0
vertex -1.29409522551261 -4.82962913144534 8.0
endloop
endfacet
facet normal -0.258819045102521 -0.965925826289068 -2.25508193398055e-017
outer loop
vertex -1.29409522551261 -4.82962913144534 8.0
vertex -2.5 -4.33012701892219 1.40998324127395e-015
vertex -1.29409522551261 -4.82962913144534 1.40998324127395e-015
endloop
endfacet
facet normal -0.5 -0.866025403784438 -1.60533138280419e-017
outer loop
vertex -2.5 -4.33012701892219 1.40998324127395e-015
vertex -1.29409522551261 -4.82962913144534 8.0
vertex -2.5 -4.33012701892219 8.0
endloop
endfacet
facet normal -0.5 -0.866025403784438 -1.60533138280419e-017
outer loop
vertex -2.5 -4.33012701892219 8.0
vertex -3.53553390593274 -3.53553390593274 1.40998324127395e-015
vertex -2.5 -4.33012701892219 1.40998324127395e-015
endloop
endfacet
facet normal -0.707106781186548 -0.707106781186547 -8.4618015082527e-018
outer loop
vertex -3.53553390593274 -3.53553390593274 1.40998324127395e-015
vertex -2.5 -4.33012701892219 8.0
vertex -3.53553390593274 -3.53553390593274 8.0
endloop
endfacet
facet normal -0.866025403784439 -0.5 -2.9363139946422e-019
outer loop
vertex -4.33012701892219 -2.5 8.0
vertex -3.53553390593274 -3.53553390593274 1.40998324127395e-015
vertex -3.53553390593274 -3.53553390593274 8.0
endloop
endfacet
facet normal -0.707106781186548 -0.707106781186547 -8.4618015082527e-018
outer loop
vertex -3.53553390593274 -3.53553390593274 1.40998324127395e-015
vertex -4.33012701892219 -2.5 8.0
vertex -4.33012701892219 -2.5 1.40998324127395e-015
endloop
endfacet
facet normal -0.965925826289068 -0.25881904510252 7.89454920394891e-018
outer loop
vertex -4.82962913144534 -1.2940952255126 8.0
vertex -4.33012701892219 -2.5 1.40998324127395e-015
vertex -4.33012701892219 -2.5 8.0
endloop
endfacet
facet normal -0.866025403784439 -0.5 -2.9363139946422e-019
outer loop
vertex -4.33012701892219 -2.5 1.40998324127395e-015
vertex -4.82962913144534 -1.2940952255126 8.0
vertex -4.82962913144534 -1.2940952255126 1.40998324127395e-015
endloop
endfacet
facet normal -1.0 6.23777692695283e-017 1.55447293254723e-017
outer loop
vertex -5.0 0.0 8.0
vertex -4.82962913144534 -1.2940952255126 1.40998324127395e-015
vertex -4.82962913144534 -1.2940952255126 8.0
endloop
endfacet
facet normal -0.965925826289068 -0.25881904510252 7.89454920394891e-018
outer loop
vertex -4.82962913144534 -1.2940952255126 1.40998324127395e-015
vertex -5.0 0.0 8.0
vertex -5.0 0.0 1.40998324127395e-015
endloop
endfacet
facet normal -0.965925826289068 0.258819045102521 2.21355618323446e-017
outer loop
vertex -4.82962913144534 1.29409522551261 8.0
vertex -5.0 0.0 1.40998324127395e-015
vertex -5.0 0.0 8.0
endloop
endfacet
facet normal -1.0 6.23777692695283e-017 1.55447293254723e-017
outer loop
vertex -5.0 0.0 1.40998324127395e-015
vertex -4.82962913144534 1.29409522551261 8.0
vertex -4.82962913144534 1.29409522551261 1.40998324127395e-015
endloop
endfacet
facet normal -0.866025403784438 0.5 2.72178923810882e-017
outer loop
vertex -4.33012701892219 2.5 8.0
vertex -4.82962913144534 1.29409522551261 1.40998324127395e-015
vertex -4.82962913144534 1.29409522551261 8.0
endloop
endfacet
facet normal -0.965925826289068 0.258819045102521 2.21355618323446e-017
outer loop
vertex -4.82962913144534 1.29409522551261 1.40998324127395e-015
vertex -4.33012701892219 2.5 8.0
vertex -4.33012701892219 2.5 1.40998324127395e-015
endloop
endfacet
facet normal -0.707106781186547 0.707106781186548 3.04453685437545e-017
outer loop
vertex -3.53553390593274 3.53553390593274 8.0
vertex -4.33012701892219 2.5 1.40998324127395e-015
vertex -4.33012701892219 2.5 8.0
endloop
endfacet
facet normal -0.866025403784438 0.5 2.72178923810882e-017
outer loop
vertex -4.33012701892219 2.5 1.40998324127395e-015
vertex -3.53553390593274 3.53553390593274 8.0
vertex -3.53553390593274 3.53553390593274 1.40998324127395e-015
endloop
endfacet
facet normal -0.707106781186547 0.707106781186548 3.04453685437545e-017
outer loop
vertex -3.53553390593274 3.53553390593274 8.0
vertex -2.5 4.33012701892219 1.40998324127395e-015
vertex -3.53553390593274 3.53553390593274 1.40998324127395e-015
endloop
endfacet
facet normal -0.5 0.866025403784439 3.15980431535143e-017
outer loop
vertex -2.5 4.33012701892219 1.40998324127395e-015
vertex -3.53553390593274 3.53553390593274 8.0
vertex -2.5 4.33012701892219 8.0
endloop
endfacet
facet normal -0.5 0.866025403784439 3.15980431535143e-017
outer loop
vertex -2.5 4.33012701892219 8.0
vertex -1.2940952255126 4.82962913144534 1.40998324127395e-015
vertex -2.5 4.33012701892219 1.40998324127395e-015
endloop
endfacet
facet normal -0.258819045102521 0.965925826289068 3.05973633405973e-017
outer loop
vertex -1.2940952255126 4.82962913144534 1.40998324127395e-015
vertex -2.5 4.33012701892219 8.0
vertex -1.2940952255126 4.82962913144534 8.0
endloop
endfacet
facet normal -0.258819045102521 0.965925826289068 3.05973633405973e-017
outer loop
vertex -1.2940952255126 4.82962913144534 8.0
vertex 0.0 5.0 1.40998324127395e-015
vertex -1.2940952255126 4.82962913144534 1.40998324127395e-015
endloop
endfacet
facet normal -0.0654031292301432 0.997858923238604 2.84692934372367e-017
outer loop
vertex 0.0 5.0 1.40998324127395e-015
vertex -1.2940952255126 4.82962913144534 8.0
vertex 0.0 5.0 8.0
endloop
endfacet
facet normal -0.0654031292301432 0.997858923238604 2.84692934372367e-017
outer loop
vertex 0.0 5.0 8.0
vertex 0.404149764380189 5.0 1.40998324127395e-015
vertex 0.0 5.0 1.40998324127395e-015
endloop
endfacet
facet normal 0.0 1.0 2.75115237805524e-017
outer loop
vertex 0.404149764380189 5.0 1.40998324127395e-015
vertex 0.0 5.0 8.0
vertex 0.404149764380189 5.0 8.0
endloop
endfacet
facet normal 0.0 1.0 0.0
outer loop
vertex 0.404149764380189 5.0 8.0
vertex 1.40414976438019 5.0 1.40998324127395e-015
vertex 0.404149764380189 5.0 1.40998324127395e-015
endloop
endfacet
facet normal 0.0 1.0 0.0
outer loop
vertex 1.40414976438019 5.0 1.40998324127395e-015
vertex 0.404149764380189 5.0 8.0
vertex 1.40414976438019 5.0 8.0
endloop
endfacet
facet normal -0.866025403784439 0.5 -2.30029781431884e-017
outer loop
vertex 2.02440053704357 5.31480739701358 8.0
vertex 1.89400304366517 5.0 1.09957277739699e-015
vertex 1.89400304366517 5.0 8.0
endloop
endfacet
facet normal -0.923879532511287 0.38268343236509 -1.27810372985708e-017
outer loop
vertex 1.89400304366517 5.0 1.09957277739699e-015
vertex 2.02440053704357 5.31480739701358 8.0
vertex 2.02440053704357 5.31480739701358 6.91442803381153e-016
endloop
endfacet
facet normal 0.0 1.0 0.0
outer loop
vertex 1.40414976438019 5.0 1.40998324127395e-015
vertex 1.89400304366517 5.0 8.0
vertex 1.89400304366517 5.0 1.09957277739699e-015
endloop
endfacet
facet normal 0.0 1.0 0.0
outer loop
vertex 1.89400304366517 5.0 8.0
vertex 1.40414976438019 5.0 1.40998324127395e-015
vertex 1.40414976438019 5.0 8.0
endloop
endfacet
facet normal 0.707106781186548 0.707106781186547 -3.68886181215596e-017
outer loop
vertex 9.30739657354552 6.27363201513817 3.93813608892455e-016
vertex 10.0431285797711 5.31480739701358 8.0
vertex 10.0431285797711 5.31480739701358 6.91442803381153e-016
endloop
endfacet
facet normal 0.793353340291236 0.60876142900872 -2.17771727331673e-032
outer loop
vertex 10.0431285797711 5.31480739701358 8.0
vertex 9.30739657354552 6.27363201513817 3.93813608892455e-016
vertex 9.30739657354552 6.27363201513817 8.0
endloop
endfacet
facet normal 0.5 0.866025403784439 -7.68056357676183e-017
outer loop
vertex 8.34857195542093 7.00936402136378 8.0
vertex 9.30739657354552 6.27363201513817 3.93813608892455e-016
vertex 8.34857195542093 7.00936402136378 1.65434695550837e-016
endloop
endfacet
facet normal 0.707106781186548 0.707106781186547 -3.68886181215596e-017
outer loop
vertex 9.30739657354552 6.27363201513817 3.93813608892455e-016
vertex 8.34857195542093 7.00936402136378 8.0
vertex 9.30739657354552 6.27363201513817 8.0
endloop
endfacet
facet normal 0.258819045102521 0.965925826289068 -8.01421560300281e-017
outer loop
vertex 7.23199703858996 7.47186449532078 8.0
vertex 8.34857195542093 7.00936402136378 1.65434695550837e-016
vertex 7.23199703858996 7.47186449532078 2.18697088865334e-017
endloop
endfacet
facet normal 0.5 0.866025403784439 -7.68056357676183e-017
outer loop
vertex 8.34857195542093 7.00936402136378 1.65434695550837e-016
vertex 7.23199703858996 7.47186449532078 8.0
vertex 8.34857195542093 7.00936402136378 8.0
endloop
endfacet
facet normal 5.79222143217049e-016 1.0 -7.80171208001664e-017
outer loop
vertex 6.03376455840735 7.62961479402716 8.0
vertex 7.23199703858996 7.47186449532078 2.18697088865334e-017
vertex 6.03376455840735 7.62961479402716 -2.70976345116428e-017
endloop
endfacet
facet normal 0.258819045102521 0.965925826289068 -8.01421560300281e-017
outer loop
vertex 7.23199703858996 7.47186449532078 2.18697088865334e-017
vertex 6.03376455840735 7.62961479402716 8.0
vertex 7.23199703858996 7.47186449532078 8.0
endloop
endfacet
facet normal -0.258819045102521 0.965925826289068 -7.05753477171614e-017
outer loop
vertex 4.83553207822474 7.47186449532078 2.18697088865331e-017
vertex 6.03376455840735 7.62961479402716 8.0
vertex 6.03376455840735 7.62961479402716 -2.70976345116428e-017
endloop
endfacet
facet normal 5.79222143217049e-016 1.0 -7.80171208001664e-017
outer loop
vertex 6.03376455840735 7.62961479402716 8.0
vertex 4.83553207822474 7.47186449532078 2.18697088865331e-017
vertex 4.83553207822474 7.47186449532078 8.0
endloop
endfacet
facet normal -0.5 0.866025403784439 -5.83239813185085e-017
outer loop
vertex 3.71895716139377 7.00936402136378 1.65434695550837e-016
vertex 4.83553207822474 7.47186449532078 8.0
vertex 4.83553207822474 7.47186449532078 2.18697088865331e-017
endloop
endfacet
facet normal -0.258819045102521 0.965925826289068 -7.05753477171614e-017
outer loop
vertex 4.83553207822474 7.47186449532078 8.0
vertex 3.71895716139377 7.00936402136378 1.65434695550837e-016
vertex 3.71895716139377 7.00936402136378 8.0
endloop
endfacet
facet normal -0.707106781186547 0.707106781186548 -4.20979319779357e-017
outer loop
vertex 2.76013254326918 6.27363201513817 3.93813608892454e-016
vertex 3.71895716139377 7.00936402136378 8.0
vertex 3.71895716139377 7.00936402136378 1.65434695550837e-016
endloop
endfacet
facet normal -0.5 0.866025403784439 -5.83239813185085e-017
outer loop
vertex 3.71895716139377 7.00936402136378 8.0
vertex 2.76013254326918 6.27363201513817 3.93813608892454e-016
vertex 2.76013254326918 6.27363201513817 8.0
endloop
endfacet
facet normal -0.707106781186547 0.707106781186548 -4.20979319779357e-017
outer loop
vertex 2.76013254326918 6.27363201513817 8.0
vertex 2.02440053704357 5.31480739701358 6.91442803381153e-016
vertex 2.02440053704357 5.31480739701358 8.0
endloop
endfacet
facet normal -0.866025403784439 0.5 -2.30029781431884e-017
outer loop
vertex 2.02440053704357 5.31480739701358 6.91442803381153e-016
vertex 2.76013254326918 6.27363201513817 8.0
vertex 2.76013254326918 6.27363201513817 3.93813608892454e-016
endloop
endfacet
facet normal 2.06262431117525e-016 1.87964139892954e-016 1.0
outer loop
vertex -4.82962913144534 -1.2940952255126 8.0
vertex -4.82962913144534 1.29409522551261 8.0
vertex -5.0 0.0 8.0
endloop
endfacet
facet normal 2.06262431117525e-016 1.87964139892954e-016 1.0
outer loop
vertex -4.82962913144534 1.29409522551261 8.0
vertex -4.82962913144534 -1.2940952255126 8.0
vertex -4.33012701892219 -2.5 8.0
endloop
endfacet
facet normal 2.06262431117525e-016 1.87964139892954e-016 1.0
outer loop
vertex -4.82962913144534 1.29409522551261 8.0
vertex -4.33012701892219 -2.5 8.0
vertex -4.33012701892219 2.5 8.0
endloop
endfacet
facet normal 2.06262431117525e-016 1.87964139892954e-016 1.0
outer loop
vertex -4.33012701892219 2.5 8.0
vertex -4.33012701892219 -2.5 8.0
vertex -3.53553390593274 -3.53553390593274 8.0
endloop
endfacet
facet normal 2.06262431117525e-016 1.87964139892954e-016 1.0
outer loop
vertex -4.33012701892219 2.5 8.0
vertex -3.53553390593274 -3.53553390593274 8.0
vertex -3.53553390593274 3.53553390593274 8.0
endloop
endfacet
facet normal 2.06262431117525e-016 1.87964139892954e-016 1.0
outer loop
vertex -3.53553390593274 3.53553390593274 8.0
vertex -3.53553390593274 -3.53553390593274 8.0
vertex -2.5 -4.33012701892219 8.0
endloop
endfacet
facet normal 2.06262431117525e-016 1.87964139892954e-016 1.0
outer loop
vertex -3.53553390593274 3.53553390593274 8.0
vertex -2.5 -4.33012701892219 8.0
vertex -3.0 0.0 8.0
endloop
endfacet
facet normal 2.06262431117525e-016 1.87964139892954e-016 1.0
outer loop
vertex -3.0 0.0 8.0
vertex -2.5 -4.33012701892219 8.0
vertex -2.89777747886721 -0.776457135307561 8.0
endloop
endfacet
facet normal 2.06262431117525e-016 1.87964139892954e-016 1.0
outer loop
vertex -2.89777747886721 -0.776457135307561 8.0
vertex -2.5 -4.33012701892219 8.0
vertex -2.59807621135332 -1.5 8.0
endloop
endfacet
facet normal 2.06262431117525e-016 1.87964139892954e-016 1.0
outer loop
vertex -2.59807621135332 -1.5 8.0
vertex -2.5 -4.33012701892219 8.0
vertex -2.12132034355964 -2.12132034355964 8.0
endloop
endfacet
facet normal 2.06262431117525e-016 1.87964139892954e-016 1.0
outer loop
vertex -2.12132034355964 -2.12132034355964 8.0
vertex -2.5 -4.33012701892219 8.0
vertex -1.29409522551261 -4.82962913144534 8.0
endloop
endfacet
facet normal 2.06262431117525e-016 1.87964139892954e-016 1.0
outer loop
vertex -2.12132034355964 -2.12132034355964 8.0
vertex -1.29409522551261 -4.82962913144534 8.0
vertex -1.5 -2.59807621135331 8.0
endloop
endfacet
facet normal 2.06262431117525e-016 1.87964139892954e-016 1.0
outer loop
vertex -1.5 -2.59807621135331 8.0
vertex -1.29409522551261 -4.82962913144534 8.0
vertex -0.776457135307565 -2.8977774788672 8.0
endloop
endfacet
facet normal 2.06262431117525e-016 1.87964139892954e-016 1.0
outer loop
vertex -0.776457135307565 -2.8977774788672 8.0
vertex -1.29409522551261 -4.82962913144534 8.0
vertex -7.04991620636974e-016 -5.0 8.0
endloop
endfacet
facet normal 2.06262431117525e-016 1.87964139892954e-016 1.0
outer loop
vertex -0.776457135307565 -2.8977774788672 8.0
vertex -7.04991620636974e-016 -5.0 8.0
vertex 0.0 -3.0 8.0
endloop
endfacet
facet normal 2.06262431117525e-016 1.87964139892954e-016 1.0
outer loop
vertex 0.0 -3.0 8.0
vertex -7.04991620636974e-016 -5.0 8.0
vertex 12.6800855538246 -5.0 8.0
endloop
endfacet
facet normal 2.06262431117525e-016 1.87964139892954e-016 1.0
outer loop
vertex 0.0 -3.0 8.0
vertex 12.6800855538246 -5.0 8.0
vertex 10.0 -3.0 8.0
endloop
endfacet
facet normal 2.06262431117525e-016 1.87964139892954e-016 1.0
outer loop
vertex 10.0 -3.0 8.0
vertex 12.6800855538246 -5.0 8.0
vertex 10.0571303621921 -2.56605181641783 8.0
endloop
endfacet
facet normal 2.06262431117525e-016 1.87964139892954e-016 1.0
outer loop
vertex 10.0571303621921 -2.56605181641783 8.0
vertex 12.6800855538246 -5.0 8.0
vertex 10.2246281089974 -2.16167648441351 8.0
endloop
endfacet
facet normal 2.06262431117525e-016 1.87964139892954e-016 1.0
outer loop
vertex 10.2246281089974 -2.16167648441351 8.0
vertex 12.6800855538246 -5.0 8.0
vertex 10.4910785457743 -1.81443151460129 8.0
endloop
endfacet
facet normal 2.06262431117525e-016 1.87964139892954e-016 1.0
outer loop
vertex 10.4910785457743 -1.81443151460129 8.0
vertex 12.6800855538246 -5.0 8.0
vertex 10.8383235155865 -1.54798107782444 8.0
endloop
endfacet
facet normal 2.06262431117525e-016 1.87964139892954e-016 1.0
outer loop
vertex 10.8383235155865 -1.54798107782444 8.0
vertex 12.6800855538246 -5.0 8.0
vertex 11.2426988475908 -1.38048333101913 8.0
endloop
endfacet
facet normal 2.06262431117525e-016 1.87964139892954e-016 1.0
outer loop
vertex 11.2426988475908 -1.38048333101913 8.0
vertex 12.6800855538246 -5.0 8.0
vertex 11.676647031173 -1.32335296882702 8.0
endloop
endfacet
facet normal 2.06262431117525e-016 1.87964139892954e-016 1.0
outer loop
vertex 11.676647031173 -1.32335296882702 8.0
vertex 12.6800855538246 -5.0 8.0
vertex 12.1105952147551 -1.38048333101913 8.0
endloop
endfacet
facet normal 2.06262431117525e-016 1.87964139892954e-016 1.0
outer loop
vertex 12.1105952147551 -1.38048333101913 8.0
vertex 12.6800855538246 -5.0 8.0
vertex 12.5149705467595 -1.54798107782444 8.0
endloop
endfacet
facet normal 2.06262431117525e-016 1.87964139892954e-016 1.0
outer loop
vertex 12.5149705467595 -1.54798107782444 8.0
vertex 12.6800855538246 -5.0 8.0
vertex 12.8622155165717 -1.81443151460129 8.0
endloop
endfacet
facet normal 2.06262431117525e-016 1.87964139892954e-016 1.0
outer loop
vertex 12.8622155165717 -1.81443151460129 8.0
vertex 12.6800855538246 -5.0 8.0
vertex 13.353294062346 -3.0 8.0
endloop
endfacet
facet normal 2.06262431117525e-016 1.87964139892954e-016 1.0
outer loop
vertex 13.353294062346 -3.0 8.0
vertex 12.6800855538246 -5.0 8.0
vertex 16.1261891863605 -7.61638956666529 8.0
endloop
endfacet
facet normal 2.06262431117525e-016 1.87964139892954e-016 1.0
outer loop
vertex 12.8622155165717 -1.81443151460129 8.0
vertex 13.353294062346 -3.0 8.0
vertex 13.1286659533485 -2.16167648441351 8.0
endloop
endfacet
facet normal 2.06262431117525e-016 1.87964139892954e-016 1.0
outer loop
vertex 13.1286659533485 -2.16167648441351 8.0
vertex 13.353294062346 -3.0 8.0
vertex 13.2961637001539 -2.56605181641783 8.0
endloop
endfacet
facet normal 2.06262431117525e-016 1.87964139892954e-016 1.0
outer loop
vertex 13.353294062346 -3.0 8.0
vertex 16.1261891863605 -7.61638956666529 8.0
vertex 17.3355793646569 -6.02347544574091 8.0
endloop
endfacet
facet normal 2.06262431117525e-016 1.87964139892954e-016 1.0
outer loop
vertex 10.6633793524345 3.0 8.0
vertex 8.44725236513605 3.0773967569605 8.0
vertex 8.4393896578108 3.0 8.0
endloop
endfacet
facet normal 2.06262431117525e-016 1.87964139892954e-016 1.0
outer loop
vertex 8.44725236513605 3.0773967569605 8.0
vertex 10.6633793524345 3.0 8.0
vertex 9.30739657354552 6.27363201513817 8.0
endloop
endfacet
facet normal 2.06262431117525e-016 1.87964139892954e-016 1.0
outer loop
vertex 9.30739657354552 6.27363201513817 8.0
vertex 10.6633793524345 3.0 8.0
vertex 10.0431285797711 5.31480739701358 8.0
endloop
endfacet
facet normal 2.06262431117525e-016 1.87964139892954e-016 1.0
outer loop
vertex 10.0431285797711 5.31480739701358 8.0
vertex 10.6633793524345 3.0 8.0
vertex 10.5056290537281 4.1982324801826 7.99999999999994
endloop
endfacet
facet normal 2.06262431117525e-016 1.87964139892954e-016 1.0
outer loop
vertex -3.0 0.0 8.0
vertex -2.5 4.33012701892219 8.0
vertex -3.53553390593274 3.53553390593274 8.0
endloop
endfacet
facet normal 2.06262431117525e-016 1.87964139892954e-016 1.0
outer loop
vertex -2.5 4.33012701892219 8.0
vertex -3.0 0.0 8.0
vertex -2.8977774788672 0.776457135307564 8.0
endloop
endfacet
facet normal 2.06262431117525e-016 1.87964139892954e-016 1.0
outer loop
vertex -2.5 4.33012701892219 8.0
vertex -2.8977774788672 0.776457135307564 8.0
vertex -2.59807621135332 1.5 8.0
endloop
endfacet
facet normal 2.06262431117525e-016 1.87964139892954e-016 1.0
outer loop
vertex -2.5 4.33012701892219 8.0
vertex -2.59807621135332 1.5 8.0
vertex -2.12132034355964 2.12132034355964 8.0
endloop
endfacet
facet normal 2.06262431117525e-016 1.87964139892954e-016 1.0
outer loop
vertex -2.5 4.33012701892219 8.0
vertex -2.12132034355964 2.12132034355964 8.0
vertex -1.2940952255126 4.82962913144534 8.0
endloop
endfacet
facet normal 2.06262431117525e-016 1.87964139892954e-016 1.0
outer loop
vertex -1.2940952255126 4.82962913144534 8.0
vertex -2.12132034355964 2.12132034355964 8.0
vertex -1.5 2.59807621135332 8.0
endloop
endfacet
facet normal 2.06262431117525e-016 1.87964139892954e-016 1.0
outer loop
vertex -1.2940952255126 4.82962913144534 8.0
vertex -1.5 2.59807621135332 8.0
vertex -0.776457135307561 2.89777747886721 8.0
endloop
endfacet
facet normal 2.06262431117525e-016 1.87964139892954e-016 1.0
outer loop
vertex -1.2940952255126 4.82962913144534 8.0
vertex -0.776457135307561 2.89777747886721 8.0
vertex 0.0 5.0 8.0
endloop
endfacet
facet normal 2.06262431117525e-016 1.87964139892954e-016 1.0
outer loop
vertex 0.0 5.0 8.0
vertex -0.776457135307561 2.89777747886721 8.0
vertex 7.04991620636974e-016 3.0 8.0
endloop
endfacet
facet normal 2.06262431117525e-016 1.87964139892954e-016 1.0
outer loop
vertex 0.0 5.0 8.0
vertex 7.04991620636974e-016 3.0 8.0
vertex 0.404149764380189 5.0 8.0
endloop
endfacet
facet normal 2.06262431117525e-016 1.87964139892954e-016 1.0
outer loop
vertex 0.404149764380189 5.0 8.0
vertex 7.04991620636974e-016 3.0 8.0
vertex 3.23725737336218 3.0 8.0
endloop
endfacet
facet normal 2.06262431117525e-016 1.87964139892954e-016 1.0
outer loop
vertex 0.404149764380189 5.0 8.0
vertex 3.23725737336218 3.0 8.0
vertex 1.40414976438019 5.0 8.0
endloop
endfacet
facet normal 2.06262431117525e-016 1.87964139892954e-016 1.0
outer loop
vertex 1.40414976438019 5.0 8.0
vertex 3.23725737336218 3.0 8.0
vertex 1.89400304366517 5.0 8.0
endloop
endfacet
facet normal 2.06262431117525e-016 1.87964139892954e-016 1.0
outer loop
vertex 1.89400304366517 5.0 8.0
vertex 3.23725737336218 3.0 8.0
vertex 2.02440053704357 5.31480739701358 8.0
endloop
endfacet
facet normal 2.06262431117525e-016 1.87964139892954e-016 1.0
outer loop
vertex 2.02440053704357 5.31480739701358 8.0
vertex 3.23725737336218 3.0 8.0
vertex 2.76013254326918 6.27363201513817 8.0
endloop
endfacet
facet normal 2.06262431117525e-016 1.87964139892954e-016 1.0
outer loop
vertex 2.76013254326918 6.27363201513817 8.0
vertex 3.23725737336218 3.0 8.0
vertex 3.23725737336218 3.0773967569605 8.0
endloop
endfacet
facet normal 2.06262431117525e-016 1.87964139892954e-016 1.0
outer loop
vertex 2.76013254326918 6.27363201513817 8.0
vertex 3.23725737336218 3.0773967569605 8.0
vertex 3.71895716139377 7.00936402136378 8.0
endloop
endfacet
facet normal 2.06262431117525e-016 1.87964139892954e-016 1.0
outer loop
vertex 3.71895716139377 7.00936402136378 8.0
vertex 3.23725737336218 3.0773967569605 8.0
vertex 3.56610059204121 3.46037610269691 8.0
endloop
endfacet
facet normal 2.06262431117525e-016 1.87964139892954e-016 1.0
outer loop
vertex 3.71895716139377 7.00936402136378 8.0
vertex 3.56610059204121 3.46037610269691 8.0
vertex 3.95064986548016 3.78738206293225 8.0
endloop
endfacet
facet normal 2.06262431117525e-016 1.87964139892954e-016 1.0
outer loop
vertex 3.71895716139377 7.00936402136378 8.0
vertex 3.95064986548016 3.78738206293225 8.0
vertex 4.83553207822474 7.47186449532078 8.0
endloop
endfacet
facet normal 2.06262431117525e-016 1.87964139892954e-016 1.0
outer loop
vertex 4.83553207822474 7.47186449532078 8.0
vertex 3.95064986548016 3.78738206293225 8.0
vertex 4.38149382684042 4.05041157209665 8.0
endloop
endfacet
facet normal 2.06262431117525e-016 1.87964139892954e-016 1.0
outer loop
vertex 4.83553207822474 7.47186449532078 8.0
vertex 4.38149382684042 4.05041157209665 8.0
vertex 4.84808810417636 4.24302730896468 8.0
endloop
endfacet
facet normal 2.06262431117525e-016 1.87964139892954e-016 1.0
outer loop
vertex 4.83553207822474 7.47186449532078 8.0
vertex 4.84808810417636 4.24302730896468 8.0
vertex 6.03376455840735 7.62961479402716 8.0
endloop
endfacet
facet normal 2.06262431117525e-016 1.87964139892954e-016 1.0
outer loop
vertex 6.03376455840735 7.62961479402716 8.0
vertex 4.84808810417636 4.24302730896468 8.0
vertex 5.33901338086951 4.36051524211368 8.0
endloop
endfacet
facet normal 2.06262431117525e-016 1.87964139892954e-016 1.0
outer loop
vertex 6.03376455840735 7.62961479402716 8.0
vertex 5.33901338086951 4.36051524211368 8.0
vertex 5.84225486924912 4.4 8.0
endloop
endfacet
facet normal 2.06262431117525e-016 1.87964139892954e-016 1.0
outer loop
vertex 6.03376455840735 7.62961479402716 8.0
vertex 5.84225486924912 4.4 8.0
vertex 6.34549635762873 4.36051524211368 8.0
endloop
endfacet
facet normal 2.06262431117525e-016 1.87964139892954e-016 1.0
outer loop
vertex 6.03376455840735 7.62961479402716 8.0
vertex 6.34549635762873 4.36051524211368 8.0
vertex 7.23199703858996 7.47186449532078 8.0
endloop
endfacet
facet normal 2.06262431117525e-016 1.87964139892954e-016 1.0
outer loop
vertex 7.23199703858996 7.47186449532078 8.0
vertex 6.34549635762873 4.36051524211368 8.0
vertex 6.83642163432187 4.24302730896468 8.0
endloop
endfacet
facet normal 2.06262431117525e-016 1.87964139892954e-016 1.0
outer loop
vertex 7.23199703858996 7.47186449532078 8.0
vertex 6.83642163432187 4.24302730896468 8.0
vertex 7.30301591165782 4.05041157209665 8.0
endloop
endfacet
facet normal 2.06262431117525e-016 1.87964139892954e-016 1.0
outer loop
vertex 7.23199703858996 7.47186449532078 8.0
vertex 7.30301591165782 4.05041157209665 8.0
vertex 8.34857195542093 7.00936402136378 8.0
endloop
endfacet
facet normal 2.06262431117525e-016 1.87964139892954e-016 1.0
outer loop
vertex 8.34857195542093 7.00936402136378 8.0
vertex 7.30301591165782 4.05041157209665 8.0
vertex 7.73385987301808 3.78738206293225 8.0
endloop
endfacet
facet normal 2.06262431117525e-016 1.87964139892954e-016 1.0
outer loop
vertex 8.34857195542093 7.00936402136378 8.0
vertex 7.73385987301808 3.78738206293225 8.0
vertex 8.11840914645703 3.4603761026969 8.0
endloop
endfacet
facet normal 2.06262431117525e-016 1.87964139892954e-016 1.0
outer loop
vertex 8.34857195542093 7.00936402136378 8.0
vertex 8.11840914645703 3.4603761026969 8.0
vertex 8.44725236513605 3.0773967569605 8.0
endloop
endfacet
facet normal 2.06262431117525e-016 1.87964139892954e-016 1.0
outer loop
vertex 8.34857195542093 7.00936402136378 8.0
vertex 8.44725236513605 3.0773967569605 8.0
vertex 9.30739657354552 6.27363201513817 8.0
endloop
endfacet
facet normal -0.705412135491691 -0.708797375207508 5.96610874792871e-019
outer loop
vertex 8.11840914645703 3.4603761026969 8.0
vertex 8.44725236513605 3.0773967569605 1.40998324127395e-015
vertex 8.44725236513605 3.0773967569605 8.0
endloop
endfacet
facet normal -0.758693269195568 -0.651448020395596 1.18956582093742e-018
outer loop
vertex 8.44725236513605 3.0773967569605 1.40998324127395e-015
vertex 8.11840914645703 3.4603761026969 8.0
vertex 8.11840914645703 3.4603761026969 1.40998324127395e-015
endloop
endfacet
facet normal -0.705412135491691 -0.708797375207508 5.96610874792871e-019
outer loop
vertex 8.11840914645703 3.4603761026969 8.0
vertex 7.73385987301808 3.78738206293225 1.40998324127395e-015
vertex 8.11840914645703 3.4603761026969 1.40998324127395e-015
endloop
endfacet
facet normal -0.586234922024817 -0.810141108819049 0.0
outer loop
vertex 7.73385987301808 3.78738206293225 1.40998324127395e-015
vertex 8.11840914645703 3.4603761026969 8.0
vertex 7.73385987301808 3.78738206293225 8.0
endloop
endfacet
facet normal -0.586234922024817 -0.810141108819049 0.0
outer loop
vertex 7.73385987301808 3.78738206293225 8.0
vertex 7.30301591165782 4.05041157209665 1.40998324127395e-015
vertex 7.73385987301808 3.78738206293225 1.40998324127395e-015
endloop
endfacet
facet normal -0.452710335449053 -0.891657642919975 0.0
outer loop
vertex 7.30301591165782 4.05041157209665 1.40998324127395e-015
vertex 7.73385987301808 3.78738206293225 8.0
vertex 7.30301591165782 4.05041157209665 8.0
endloop
endfacet
facet normal -0.452710335449053 -0.891657642919975 0.0
outer loop
vertex 7.30301591165782 4.05041157209665 8.0
vertex 6.83642163432187 4.24302730896468 1.40998324127395e-015
vertex 7.30301591165782 4.05041157209665 1.40998324127395e-015
endloop
endfacet
facet normal -0.308106224524069 -0.951351961373668 0.0
outer loop
vertex 6.83642163432187 4.24302730896468 1.40998324127395e-015
vertex 7.30301591165782 4.05041157209665 8.0
vertex 6.83642163432187 4.24302730896468 8.0
endloop
endfacet
facet normal -0.308106224524069 -0.951351961373668 0.0
outer loop
vertex 6.83642163432187 4.24302730896468 8.0
vertex 6.34549635762873 4.36051524211368 1.40998324127395e-015
vertex 6.83642163432187 4.24302730896468 1.40998324127395e-015
endloop
endfacet
facet normal -0.155961595635484 -0.987763119723972 0.0
outer loop
vertex 6.34549635762873 4.36051524211368 1.40998324127395e-015
vertex 6.83642163432187 4.24302730896468 8.0
vertex 6.34549635762873 4.36051524211368 8.0
endloop
endfacet
facet normal -0.155961595635484 -0.987763119723972 0.0
outer loop
vertex 6.34549635762873 4.36051524211368 8.0
vertex 5.84225486924912 4.4 1.40998324127395e-015
vertex 6.34549635762873 4.36051524211368 1.40998324127395e-015
endloop
endfacet
facet normal -5.31721596074769e-017 -1.0 0.0
outer loop
vertex 5.84225486924912 4.4 1.40998324127395e-015
vertex 6.34549635762873 4.36051524211368 8.0
vertex 5.84225486924912 4.4 8.0
endloop
endfacet
facet normal -5.31721596074769e-017 -1.0 0.0
outer loop
vertex 5.84225486924912 4.4 8.0
vertex 5.33901338086951 4.36051524211368 1.40998324127395e-015
vertex 5.84225486924912 4.4 1.40998324127395e-015
endloop
endfacet
facet normal 0.155961595635484 -0.987763119723972 0.0
outer loop
vertex 5.33901338086951 4.36051524211368 1.40998324127395e-015
vertex 5.84225486924912 4.4 8.0
vertex 5.33901338086951 4.36051524211368 8.0
endloop
endfacet
facet normal 0.155961595635484 -0.987763119723972 0.0
outer loop
vertex 5.33901338086951 4.36051524211368 8.0
vertex 4.84808810417636 4.24302730896468 1.40998324127395e-015
vertex 5.33901338086951 4.36051524211368 1.40998324127395e-015
endloop
endfacet
facet normal 0.308106224524069 -0.951351961373668 0.0
outer loop
vertex 4.84808810417636 4.24302730896468 1.40998324127395e-015
vertex 5.33901338086951 4.36051524211368 8.0
vertex 4.84808810417636 4.24302730896468 8.0
endloop
endfacet
facet normal 0.308106224524069 -0.951351961373668 0.0
outer loop
vertex 4.84808810417636 4.24302730896468 8.0
vertex 4.38149382684042 4.05041157209665 1.40998324127395e-015
vertex 4.84808810417636 4.24302730896468 1.40998324127395e-015
endloop
endfacet
facet normal 0.452710335449053 -0.891657642919975 0.0
outer loop
vertex 4.38149382684042 4.05041157209665 1.40998324127395e-015
vertex 4.84808810417636 4.24302730896468 8.0
vertex 4.38149382684042 4.05041157209665 8.0
endloop
endfacet
facet normal 0.452710335449053 -0.891657642919975 0.0
outer loop
vertex 4.38149382684042 4.05041157209665 8.0
vertex 3.95064986548016 3.78738206293225 1.40998324127395e-015
vertex 4.38149382684042 4.05041157209665 1.40998324127395e-015
endloop
endfacet
facet normal 0.586234922024816 -0.810141108819049 0.0
outer loop
vertex 3.95064986548016 3.78738206293225 1.40998324127395e-015
vertex 4.38149382684042 4.05041157209665 8.0
vertex 3.95064986548016 3.78738206293225 8.0
endloop
endfacet
facet normal 0.586234922024816 -0.810141108819049 0.0
outer loop
vertex 3.95064986548016 3.78738206293225 8.0
vertex 3.56610059204121 3.46037610269691 1.40998324127395e-015
vertex 3.95064986548016 3.78738206293225 1.40998324127395e-015
endloop
endfacet
facet normal 0.705412135491691 -0.708797375207507 0.0
outer loop
vertex 3.56610059204121 3.46037610269691 1.40998324127395e-015
vertex 3.95064986548016 3.78738206293225 8.0
vertex 3.56610059204121 3.46037610269691 8.0
endloop
endfacet
facet normal 0.705412135491691 -0.708797375207507 0.0
outer loop
vertex 3.56610059204121 3.46037610269691 1.40998324127395e-015
vertex 3.23725737336218 3.0773967569605 8.0
vertex 3.23725737336218 3.0773967569605 1.40998324127395e-015
endloop
endfacet
facet normal 0.75869326919557 -0.651448020395594 0.0
outer loop
vertex 3.23725737336218 3.0773967569605 8.0
vertex 3.56610059204121 3.46037610269691 1.40998324127395e-015
vertex 3.56610059204121 3.46037610269691 8.0
endloop
endfacet
facet normal 1.0 -9.10880052760844e-015 -2.99277412503801e-034
outer loop
vertex 3.23725737336218 3.0773967569605 1.40998324127395e-015
vertex 3.23725737336218 3.0 8.0
vertex 3.23725737336218 3.0 1.40998324127395e-015
endloop
endfacet
facet normal 1.0 -9.10880052760844e-015 -2.99277412503801e-034
outer loop
vertex 3.23725737336218 3.0 8.0
vertex 3.23725737336218 3.0773967569605 1.40998324127395e-015
vertex 3.23725737336218 3.0773967569605 8.0
endloop
endfacet
facet normal 0.923879532511293 0.382683432365074 2.60165479295772e-015
outer loop
vertex 10.5056290537281 4.19823248018261 1.03803934126803e-015
vertex 10.0431285797711 5.31480739701358 8.0
vertex 10.5056290537281 4.1982324801826 7.99999999999994
endloop
endfacet
facet normal 0.923879532511293 0.382683432365074 2.60165479295772e-015
outer loop
vertex 10.0431285797711 5.31480739701358 8.0
vertex 10.5056290537281 4.19823248018261 1.03803934126803e-015
vertex 10.0431285797711 5.31480739701358 6.91442803381153e-016
endloop
endfacet
facet normal 0.991444861373808 0.130526192220069 2.49843192641955e-015
outer loop
vertex 10.5056290537281 4.19823248018261 1.03803934126803e-015
vertex 10.6633793524345 3.0 8.0
vertex 10.6633793524345 3.0 1.40998324127395e-015
endloop
endfacet
facet normal 0.991444861373808 0.130526192220069 2.49843192641955e-015
outer loop
vertex 10.6633793524345 3.0 8.0
vertex 10.5056290537281 4.19823248018261 1.03803934126803e-015
vertex 10.5056290537281 4.1982324801826 7.99999999999994
endloop
endfacet
endsolid 1
